HIERARCHY
ROOT Hips
{
	OFFSET	0	0	0
	CHANNELS 6  Xposition Yposition Zposition Xrotation Yrotation Zrotation
	JOINT Spine
	{
		OFFSET	0	7.0817	1.42564
		CHANNELS 3  Xrotation Yrotation Zrotation
		JOINT Spine1
		{
			OFFSET	0	12.1578	-2.17103
			CHANNELS 3  Xrotation Yrotation Zrotation
			JOINT Spine2
			{
				OFFSET	0	9.21601	0.987817
				CHANNELS 3  Xrotation Yrotation Zrotation
				JOINT Spine3
				{
					OFFSET	0	11.0288	3.27825
					CHANNELS 3  Xrotation Yrotation Zrotation
					JOINT Spine4
					{
						OFFSET	0	16.3261	-1.67169
						CHANNELS 3  Xrotation Yrotation Zrotation
						JOINT Neck
						{
							OFFSET	0	7.79399	-5.46013
							CHANNELS 3  Xrotation Yrotation Zrotation
							JOINT Head
							{
								OFFSET	0	9.35713	-2.80063
								CHANNELS 3  Xrotation Yrotation Zrotation
								End Site
								{
									OFFSET	0	19.5175	-0.944397
								}
							}
						}
					}
					JOINT LeftShoulder
					{
						OFFSET	-4.68942	19.8432	-9.35713
						CHANNELS 3  Xrotation Yrotation Zrotation
						JOINT LeftArm
						{
							OFFSET	-10.2519	-2.80063	3.59307
							CHANNELS 3  Xrotation Yrotation Zrotation
							JOINT LeftForeArm
							{
								OFFSET	-34.1249	-1.55752	2.4358
								CHANNELS 3  Xrotation Yrotation Zrotation
								JOINT LeftHand
								{
									OFFSET	-28.1809	-1.94746	2.01152
									CHANNELS 3  Xrotation Yrotation Zrotation
									End Site
									{
										OFFSET	-10.2846	-0.710727	0.734058
									}
								}
							}
						}
					}
					JOINT RightShoulder
					{
						OFFSET	4.68942	19.8432	-9.35713
						CHANNELS 3  Xrotation Yrotation Zrotation
						JOINT RightArm
						{
							OFFSET	10.2519	-2.80063	3.59307
							CHANNELS 3  Xrotation Yrotation Zrotation
							JOINT RightForeArm
							{
								OFFSET	34.1249	-1.55752	2.4358
								CHANNELS 3  Xrotation Yrotation Zrotation
								JOINT RightHand
								{
									OFFSET	28.1809	-1.94746	2.01152
									CHANNELS 3  Xrotation Yrotation Zrotation
									End Site
									{
										OFFSET	10.2846	-0.710727	0.734058
									}
								}
							}
						}
					}
				}
			}
		}
	}
	JOINT LeftUpLeg
	{
		OFFSET	-9.64475	-3.54085	-0.712821
		CHANNELS 3  Xrotation Yrotation Zrotation
		JOINT LeftLeg
		{
			OFFSET	-2.14734	-42.0762	-0.657743
			CHANNELS 3  Xrotation Yrotation Zrotation
			JOINT LeftFoot
			{
				OFFSET	-2.09898	-38.6909	3.32741
				CHANNELS 3  Xrotation Yrotation Zrotation
				JOINT LeftToeBase
				{
					OFFSET	0	-4.81787	-12.7963
					CHANNELS 3  Xrotation Yrotation Zrotation
					End Site
					{
						OFFSET	0	-1.92715	-7.70859
					}
				}
			}
		}
	}
	JOINT RightUpLeg
	{
		OFFSET	9.64475	-3.54085	-0.712821
		CHANNELS 3  Xrotation Yrotation Zrotation
		JOINT RightLeg
		{
			OFFSET	2.14734	-42.0762	-0.657743
			CHANNELS 3  Xrotation Yrotation Zrotation
			JOINT RightFoot
			{
				OFFSET	2.09898	-38.6909	3.32741
				CHANNELS 3  Xrotation Yrotation Zrotation
				JOINT RightToeBase
				{
					OFFSET	0	-4.81787	-12.7963
					CHANNELS 3  Xrotation Yrotation Zrotation
					End Site
					{
						OFFSET	0	-1.92715	-7.70859
					}
				}
			}
		}
	}
}
MOTION
Frames: 6
Frame Time: 0.020408
 -190.377 32.8074 32.9114 70.3469 -166.19 25.8631 179.993 179.952 -171.16 12.6003 0.0939164 14.7337 11.2691 0.281749 14.7338 4.56393 0.0479779 8.8402 13.1638 0.671637 2.86924 23.5839 -12.3757 -13.1217 7.73325 7.4293 -5.42481 174.289 169.956 170.055 127.91 -117.883 137.731 173.855 -173.955 177.68 -0 -48.5383 -72.3859 1.55667 24.9101 -3.37954 63.0298 89.5561 -79.816 69.3961 3.48826 -4.61522 -0 18.5871 81.2227 124.314 -13.9508 -52.3449 13.6603 144.591 -179.829 38.6078 -0.270674 -2.32978 171.308 180 -180 105.462 -76.7278 3.13601 49.9635 179.622 178.352 36.3556 0.107986 -0.883181 0.0690378 0 0
 -190.249 33.8549 34.1123 68.7272 -165.962 24.7585 179.988 179.924 -170.85 11.8332 0.148306 15.2502 10.3195 0.444918 15.2506 3.60493 0.0758815 9.15011 13.9689 0.736921 2.95975 26.6073 -13.3158 -12.3891 8.63515 6.94174 -5.52989 175.223 170.273 171.671 132.173 -119.618 140.245 173.765 -173.954 177.704 -0 -48.3941 -70.4302 1.70625 25.4434 -3.70597 142.256 89.3109 -157.965 69.3253 3.64729 -4.35582 -0 18.4921 79.0587 121.927 -10.8716 -54.8371 15.5362 143.481 179.766 39.4019 -0.020394 -2.71889 171.343 180 -180 85.0799 -48.7503 -13.4301 35.8018 -179.179 176.319 29.1643 0.472291 -1.97546 0.0686592 0 0
 -191.216 31.1754 34.5269 65.2792 -163.895 23.1637 179.995 179.972 -170.795 10.9183 0.0556732 15.3422 9.4593 0.16702 15.3422 2.99909 0.0284935 9.20529 13.6248 0.723462 2.982 26.5847 -13.0487 -12.2107 8.60843 6.88961 -5.43917 175.22 170.011 171.696 135.669 -122.135 142.237 173.274 -173.16 177.796 -0 -48.106 -67.6893 1.56866 26.9714 -3.40866 151.472 89.1726 -165.656 68.936 3.58263 -4.40984 -0 18.3387 76.5392 120.859 -9.16868 -57.4861 16.3801 142.172 -179.091 39.2017 -0.227984 -3.09295 171.381 180 -180 95.6093 -27.8733 -17.4093 19.8345 -176.568 178.915 26.1035 0.260531 -2.9495 0.0899834 0 0
 -189.566 27.8083 34.4429 62.2235 -158.957 17.7608 0.00107188 -0.00604006 10.063 9.79824 -0.011747 16.7717 8.37363 -0.0352409 16.7717 2.23581 -0.00604006 10.063 13.2648 0.770492 3.26475 26.5755 -12.9253 -12.5119 8.64049 7.54732 -5.55401 175.363 170.306 171.915 136.439 -123.239 143.806 172.626 -171.838 177.661 -0 -47.8373 -64.8476 1.52159 27.8528 -3.30625 149.806 89.5724 -163.684 68.4954 3.51002 -4.62806 -0 18.1456 74.1268 119.936 -8.89311 -60.9835 16.6756 140.97 179.992 40.1852 -0.0211199 -3.57811 171.415 180 -180 102.76 -77.4356 4.77907 66.0817 178.239 179.867 65.0413 4.62971 -1.50558 0.0917413 0 0
 -189.419 32.1445 31.6376 60.7856 -158.652 11.0531 0.00314813 -0.0157421 11.3089 8.65569 -0.030386 18.8482 7.25506 -0.091158 18.8482 1.50256 -0.0157421 11.3089 12.8046 0.836598 3.67576 26.339 -12.5934 -12.7442 8.59155 8.16535 -5.60194 175.459 170.695 172.044 136.964 -124.351 144.083 171.878 -170.826 177.159 -0 -47.5762 -62.0719 1.53476 28.1221 -3.33473 50.6716 89.8155 -63.6481 68.1872 3.78217 -4.64167 -0 17.9144 71.975 118.386 -6.21738 -63.8052 17.2428 140.023 179.957 39.6671 0.0708602 -3.93301 171.446 180 -180 104.717 -77.8988 6.49817 61.2281 177.29 176.375 38.7309 0.467098 -2.48214 0.0899408 0 0
 -190.046 33.1437 31.6322 59.099 -158.492 8.59078 179.996 179.983 -168.216 7.5289 0.0331522 19.6398 6.07033 0.0994567 19.6398 0.718816 0.0172291 11.7839 12.5294 0.853408 3.83426 26.5315 -12.6738 -12.9799 8.68298 8.61318 -5.72675 175.271 171.024 171.676 138.252 -126.2 143.451 171.208 -170.293 176.93 -0 -47.2309 -59.4832 1.55609 28.6318 -3.38058 40.8522 89.5853 -52.2051 67.8354 3.72207 -4.56754 -0 17.7005 69.9337 115.39 -0.683817 -64.3622 18.3677 139.062 179.762 40.7384 0.0287864 -4.31086 171.477 180 -180 98.8014 -68.6223 2.40329 53.4751 178.275 176.266 20.7691 0.148701 -3.23442 0.092414 0 0
